<?xml version="1.0" encoding="utf-8"?>
<!-- Generator: Adobe Illustrator 19.1.0, SVG Export Plug-In . SVG Version: 6.00 Build 0)  -->
<svg version="1.1" baseProfile="basic" id="Layer_1"
	 xmlns="http://www.w3.org/2000/svg" xmlns:xlink="http://www.w3.org/1999/xlink" x="0px" y="0px" viewBox="-43 -56 512 512"
	 xml:space="preserve">
<polygon opacity="0.15" fill="#FFFFFF" points="174.3,212 109.7,311.9 108.9,325.6 121.8,330.8 306.8,329.1 318,319.6 313.7,305.8 
	245.7,206 "/>
<g>
	<path fill="#FFFFFF" d="M254.8,256.2c0-1.5-0.6-3-1.6-4c-1-1.1-2.5-1.6-3.9-1.6c-1.4,0-2.9,0.6-3.9,1.6c-1,1.1-1.6,2.5-1.6,4
		c0,1.5,0.6,3,1.6,4c1.1,1,2.5,1.6,3.9,1.6c1.5,0,2.9-0.6,3.9-1.6C254.2,259.2,254.8,257.7,254.8,256.2z"/>
	<path fill="#FFFFFF" d="M263.4,268.7c-1-1.6-2.7-2.5-4.6-2.5c-1.1,0-2.1,0.3-3.1,0.9c-2.6,1.7-3.3,5.2-1.6,7.8l16.5,25.2
		c1.1,1.6,2.9,2.5,4.6,2.5c1,0,2-0.3,3-0.9c2.6-1.7,3.3-5.2,1.6-7.8L263.4,268.7z"/>
	<path fill="#FFFFFF" d="M213-16C93.7-16-3,80.7-3,200s96.7,216,216,216s216-96.7,216-216S332.3-16,213-16z M303.6,357.5H122.4
		c-33,0-44.4-17-44.4-36.7c0-8.1,2.3-16,6.4-22.3l34.6-51.3l33.3-51.1l1.6-2.7c9-14.3,14.1-31.2,14.1-49.4c0,0,0-51.5,0-65
		s-10.8-21.6-10.8-27.7c0-6.1,5-8.9,11.1-8.9h89.1c6.1,0,11,2.6,11,8.7c0,6.1-10.5,13.8-10.5,27.5s0,65.4,0,65.4
		c0,18.1,4.4,35.1,13.4,49.4l1.9,2.9l33.6,50.9l34.7,51.3c4.1,6.3,6.4,14.1,6.5,22.2C348,340.5,336.6,357.5,303.6,357.5z"/>
	<path fill="#FFFFFF" d="M165.1,236.6c0.2-0.4,0.4-0.6,0.5-0.8c-0.1,0.1-0.2,0.4-0.4,0.6L165.1,236.6z"/>
	<path fill="#FFFFFF" d="M288.2,259.7l-0.1-0.1l-0.1-0.1l-33.6-50.7c0,0-1.3-2-2.2-3.5c-11.3-18.1-16.8-39.2-16.8-61.2V91.7
		c0-4.6,0-12.9,0.7-15.7c3.2-12.4-0.2-11-6.4-11h-33c-6.2,0-10.3-1.5-7,11.2c0.8,3,0.7,11.3,0.7,15.6v52.3
		c0,22.3-6.4,43.4-17.4,61.1l-2.1,3.4l-33.1,51l-0.1,0.1l-0.1,0.1l-34.4,51c-1.8,2.8-2.7,6.3-2.7,9.8c0,4.4,2.3,7.4,4.2,9.2
		c3.1,3,8.7,5.1,17.7,5.1h181.1c9.1,0,14.1-2,17.2-4.9c1.9-1.8,4.7-5.1,4.7-9.6c0-3.5-1-7-2.7-9.8L288.2,259.7z M300.2,323.7
		L300.2,323.7h-11h-21H157.7h-21h-11h-0.1c-5.2,0-9.5-4.2-9.5-9.5c0-2,0.6-3.9,1.6-5.3l5.9-9l0.4-0.6l0.3-0.4l0.4-0.6l10.6-16.3
		l30.2-46.2c0.1-0.2,0.4-0.4,0.5-0.6l0.1-0.1l8.2-12.6h76.9l9.3,14l0.1,0.1c0.2,0.3,0.5,0.6,0.7,0.8l0.8,1.2l28.5,43.4l8.4,12.8
		l9.1,13.9c0.1,0.2,0.2,0.4,0.4,0.6c0.9,1.4,1.3,3.1,1.3,4.9C309.7,319.4,305.5,323.7,300.2,323.7z"/>
</g>
</svg>
