<?xml version="1.0" encoding="utf-8"?>
<!-- Generator: Adobe Illustrator 19.1.0, SVG Export Plug-In . SVG Version: 6.00 Build 0)  -->
<svg version="1.1" baseProfile="basic" xmlns="http://www.w3.org/2000/svg" xmlns:xlink="http://www.w3.org/1999/xlink" x="0px"
	 y="0px" viewBox="0 0 1600 1600" xml:space="preserve">
<g id="Group_2_copy_6_1_" opacity="0.6">
	<g id="Group_1_copy_13_">
		<g id="Shape_1">
		</g>
		<g id="Shape_1_copy">
		</g>
	</g>
	<g id="Group_1_copy_2_13_" opacity="0.8">
		<g id="Shape_1_1_">
		</g>
		<g id="Shape_1_copy_1_">
		</g>
	</g>
</g>
<g id="Group_2_copy_1_" opacity="0.302">
	<g id="Group_1_copy_12_">
		<g id="Shape_1_2_">
			<path fill-rule="evenodd" clip-rule="evenodd" fill="#FEFAFA" d="M1071.9,205.2L1071.9,205.2L1071.9,205.2L1071.9,205.2z
				 M1071.9,205.3l-3.4,8.4l3.4,8.4l3.3-8.4L1071.9,205.3z"/>
		</g>
		<g id="Shape_1_copy_2_">
			<path fill-rule="evenodd" clip-rule="evenodd" fill="#FEFAFA" d="M1071.9,210.2l-8.3,3.3l8.4,3.4l8.4-3.4L1071.9,210.2z
				 M1063.5,213.5L1063.5,213.5L1063.5,213.5L1063.5,213.5z"/>
		</g>
	</g>
	<g id="Group_1_copy_2_12_" opacity="0.8">
		<g id="Shape_1_3_">
			<path fill-rule="evenodd" clip-rule="evenodd" fill="#FEFAFA" d="M1067.2,208.9L1067.2,208.9L1067.2,208.9L1067.2,208.9z
				 M1073.8,211.7l-6.6-2.8l2.8,6.7l6.7,2.8L1073.8,211.7z"/>
		</g>
		<g id="Shape_1_copy_3_">
			<path fill-rule="evenodd" clip-rule="evenodd" fill="#FEFAFA" d="M1067.1,218.3L1067.1,218.3L1067.1,218.3L1067.1,218.3z
				 M1070,211.7l-2.8,6.6l6.7-2.8l2.8-6.7L1070,211.7z"/>
		</g>
	</g>
</g>
<g id="Group_2_copy_4_1_" opacity="0.6">
	<g id="Group_1_copy_11_">
		<g id="Shape_1_4_">
		</g>
		<g id="Shape_1_copy_4_">
		</g>
	</g>
	<g id="Group_1_copy_2_11_" opacity="0.8">
		<g id="Shape_1_5_">
		</g>
		<g id="Shape_1_copy_5_">
		</g>
	</g>
</g>
<g id="Group_1_copy_4_1_" opacity="0.102">
	<g id="Shape_1_6_">
		<path fill-rule="evenodd" clip-rule="evenodd" fill="#FEFAFA" d="M136.1,997.2l0.1,0.1l0-0.1L136.1,997.2z M136.2,997.4
			l-11.2,27.9l11.2,28.1l11.5-28L136.2,997.4z"/>
	</g>
	<g id="Shape_1_copy_6_">
		<path fill-rule="evenodd" clip-rule="evenodd" fill="#FEFAFA" d="M107.9,1024.9l28.3,11.4l28.1-11.4l-28.1-11.1L107.9,1024.9z
			 M164.3,1025l0.1,0l0-0.1L164.3,1025z"/>
	</g>
	<g id="Shape_2" opacity="0.4">
		<polygon fill-rule="evenodd" clip-rule="evenodd" fill="#FFFFFF" points="183.6,977.1 87.6,1072.3 88.4,1073.1 184.4,977.9 		"/>
	</g>
	<g id="Shape_3" opacity="0.4">
		<polygon fill-rule="evenodd" clip-rule="evenodd" fill="#FFFFFF" points="88.7,977.1 87.9,977.9 184,1073.1 184.8,1072.3 		"/>
	</g>
</g>
<g id="Group_2_copy_8_7_" opacity="0.2">
	<g id="Group_1_copy_10_">
		<g id="Shape_1_7_">
			<path fill-rule="evenodd" clip-rule="evenodd" fill="#FEFAFA" d="M601,1269.8L601,1269.8L601,1269.8L601,1269.8z M601,1269.8
				l-6,14.9l5.9,15l6.1-15L601,1269.8z"/>
		</g>
		<g id="Shape_1_copy_7_">
			<path fill-rule="evenodd" clip-rule="evenodd" fill="#FEFAFA" d="M615.9,1284.6L615.9,1284.6L615.9,1284.6L615.9,1284.6z
				 M586,1284.6l15,6.1l14.9-6.1l-14.9-6L586,1284.6z"/>
		</g>
	</g>
	<g id="Group_1_copy_2_10_" opacity="0.8">
		<g id="Shape_1_8_">
			<path fill-rule="evenodd" clip-rule="evenodd" fill="#FEFAFA" d="M592.5,1293.3l11.9-5l5-11.9l-11.8,5.1L592.5,1293.3z
				 M609.5,1276.3L609.5,1276.3L609.5,1276.3L609.5,1276.3z"/>
		</g>
		<g id="Shape_1_copy_8_">
			<path fill-rule="evenodd" clip-rule="evenodd" fill="#FEFAFA" d="M592.6,1276.2l5,11.9l11.9,5l-5.1-11.8L592.6,1276.2z
				 M609.5,1293.1L609.5,1293.1L609.5,1293.1L609.5,1293.1z"/>
		</g>
	</g>
</g>
<g id="Group_2_copy_8_6_" opacity="0.4">
	<g id="Group_1_copy_9_">
		<g id="Shape_1_9_">
			<path fill-rule="evenodd" clip-rule="evenodd" fill="#FEFAFA" d="M1479.3,723.8L1479.3,723.8L1479.3,723.8L1479.3,723.8z
				 M1479.3,723.9l-6,14.9l5.9,15l6.1-15L1479.3,723.9z"/>
		</g>
		<g id="Shape_1_copy_9_">
			<path fill-rule="evenodd" clip-rule="evenodd" fill="#FEFAFA" d="M1464.3,738.6l15,6.1l14.9-6.1l-14.9-6L1464.3,738.6z
				 M1494.2,738.6L1494.2,738.6L1494.2,738.6L1494.2,738.6z"/>
		</g>
	</g>
	<g id="Group_1_copy_2_9_" opacity="0.8">
		<g id="Shape_1_10_">
			<path fill-rule="evenodd" clip-rule="evenodd" fill="#FEFAFA" d="M1470.8,747.3l11.9-5l5-11.9l-11.8,5.1L1470.8,747.3z
				 M1487.8,730.3L1487.8,730.3L1487.8,730.3L1487.8,730.3z"/>
		</g>
		<g id="Shape_1_copy_10_">
			<path fill-rule="evenodd" clip-rule="evenodd" fill="#FEFAFA" d="M1470.9,730.2l5,11.9l11.9,5l-5.1-11.8L1470.9,730.2z
				 M1487.8,747.1L1487.8,747.1L1487.8,747.1L1487.8,747.1z"/>
		</g>
	</g>
</g>
<g id="Group_2_copy_8_5_" opacity="0.6">
	<g id="Group_1_copy_8_">
		<g id="Shape_1_11_">
		</g>
		<g id="Shape_1_copy_11_">
		</g>
	</g>
	<g id="Group_1_copy_2_8_" opacity="0.8">
		<g id="Shape_1_12_">
		</g>
		<g id="Shape_1_copy_12_">
		</g>
	</g>
</g>
<g id="Group_2_copy_8_4_" opacity="0.8">
	<g id="Group_1_copy_7_">
		<g id="Shape_1_13_">
		</g>
		<g id="Shape_1_copy_13_">
		</g>
	</g>
	<g id="Group_1_copy_2_7_" opacity="0.8">
		<g id="Shape_1_14_">
		</g>
		<g id="Shape_1_copy_14_">
		</g>
	</g>
</g>
</svg>
