<?xml version="1.0" encoding="utf-8"?>
<!-- Generator: Adobe Illustrator 19.1.0, SVG Export Plug-In . SVG Version: 6.00 Build 0)  -->
<svg version="1.1" baseProfile="basic" xmlns="http://www.w3.org/2000/svg" xmlns:xlink="http://www.w3.org/1999/xlink" x="0px"
	 y="0px" viewBox="0 0 1600 1600" xml:space="preserve">
<g id="Rectangle_1_1_">
</g>
<g id="Group_1_copy_3_1_" opacity="0.2">
	<g id="Shape_1">
		<path fill-rule="evenodd" clip-rule="evenodd" fill="#FEFAFA" d="M499.5,889.8l0,0.1L499.5,889.8L499.5,889.8z M499.5,889.9
			l-9.4,23.2l9.3,23.4l9.6-23.4L499.5,889.9z"/>
	</g>
	<g id="Shape_1_copy">
		<path fill-rule="evenodd" clip-rule="evenodd" fill="#FEFAFA" d="M522.9,912.9L522.9,912.9l0.1,0L522.9,912.9z M475.9,912.8
			l23.6,9.5l23.5-9.5l-23.4-9.3L475.9,912.8z"/>
	</g>
	<g id="Shape_2" opacity="0.4">
		<polygon fill-rule="evenodd" clip-rule="evenodd" fill="#FFFFFF" points="539,873 459,952.3 459.7,953 539.7,873.7 		"/>
	</g>
	<g id="Shape_3" opacity="0.4">
		<polygon fill-rule="evenodd" clip-rule="evenodd" fill="#FFFFFF" points="460,873 459.3,873.7 539.3,953 540,952.3 		"/>
	</g>
</g>
<g id="Group_2_copy_6_1_" opacity="0.6">
	<g id="Group_1_copy_23_">
		<g id="Shape_1_1_">
			<path fill-rule="evenodd" clip-rule="evenodd" fill="#FEFAFA" d="M12.5,479L12.5,479L12.5,479L12.5,479z M12.5,479.1l-5,12.4
				l4.9,12.5l5.1-12.5L12.5,479.1z"/>
		</g>
		<g id="Shape_1_copy_1_">
			<path fill-rule="evenodd" clip-rule="evenodd" fill="#FEFAFA" d="M0,491.3l12.5,5.1l12.4-5.1l-12.4-5L0,491.3z M24.9,491.4
				L24.9,491.4L24.9,491.4L24.9,491.4z"/>
		</g>
	</g>
	<g id="Group_1_copy_2_23_" opacity="0.8">
		<g id="Shape_1_2_">
			<path fill-rule="evenodd" clip-rule="evenodd" fill="#FEFAFA" d="M5.4,498.6l10-4.2l4.2-9.9l-9.8,4.2L5.4,498.6z M19.6,484.4
				L19.6,484.4L19.6,484.4L19.6,484.4z"/>
		</g>
		<g id="Shape_1_copy_2_">
			<path fill-rule="evenodd" clip-rule="evenodd" fill="#FEFAFA" d="M5.5,484.3l4.2,10l9.9,4.2l-4.2-9.8L5.5,484.3z M19.6,498.5
				L19.6,498.5L19.6,498.5L19.6,498.5z"/>
		</g>
	</g>
</g>
<g id="Group_2_copy_7_1_" opacity="0.6">
	<g id="Group_1_copy_22_">
		<g id="Shape_1_3_">
			<path fill-rule="evenodd" clip-rule="evenodd" fill="#FEFAFA" d="M1175.5,625L1175.5,625L1175.5,625L1175.5,625z M1175.5,625.1
				l-5,12.4l4.9,12.5l5.1-12.5L1175.5,625.1z"/>
		</g>
		<g id="Shape_1_copy_3_">
			<path fill-rule="evenodd" clip-rule="evenodd" fill="#FEFAFA" d="M1163,637.3l12.5,5.1l12.4-5.1l-12.4-5L1163,637.3z
				 M1187.9,637.4L1187.9,637.4L1187.9,637.4L1187.9,637.4z"/>
		</g>
	</g>
	<g id="Group_1_copy_2_22_" opacity="0.8">
		<g id="Shape_1_4_">
			<path fill-rule="evenodd" clip-rule="evenodd" fill="#FEFAFA" d="M1182.6,630.4L1182.6,630.4L1182.6,630.4L1182.6,630.4z
				 M1168.4,644.6l10-4.2l4.2-9.9l-9.8,4.2L1168.4,644.6z"/>
		</g>
		<g id="Shape_1_copy_4_">
			<path fill-rule="evenodd" clip-rule="evenodd" fill="#FEFAFA" d="M1182.6,644.5L1182.6,644.5L1182.6,644.5L1182.6,644.5z
				 M1168.5,630.3l4.2,10l9.9,4.2l-4.2-9.8L1168.5,630.3z"/>
		</g>
	</g>
</g>
<g id="Group_2_copy_1_">
	<g id="Group_1_copy_21_">
		<g id="Shape_1_5_">
			<path fill-rule="evenodd" clip-rule="evenodd" fill="#FEFAFA" d="M476,194l-2.8,7l2.8,7l2.9-7L476,194z M476,194L476,194L476,194
				L476,194z"/>
		</g>
		<g id="Shape_1_copy_5_">
			<path fill-rule="evenodd" clip-rule="evenodd" fill="#FEFAFA" d="M469,200.9l7,2.9l7-2.8l-7-2.8L469,200.9z M483,200.9L483,200.9
				L483,200.9L483,200.9z"/>
		</g>
	</g>
	<g id="Group_1_copy_2_21_" opacity="0.8">
		<g id="Shape_1_6_">
			<path fill-rule="evenodd" clip-rule="evenodd" fill="#FEFAFA" d="M472,205l5.6-2.3l2.3-5.6l-5.5,2.4L472,205z M480,197L480,197
				L480,197L480,197z"/>
		</g>
		<g id="Shape_1_copy_6_">
			<path fill-rule="evenodd" clip-rule="evenodd" fill="#FEFAFA" d="M472.1,197l2.3,5.6l5.5,2.3l-2.4-5.5L472.1,197z M480,204.9
				L480,204.9L480,204.9L480,204.9z"/>
		</g>
	</g>
</g>
<g id="Group_2_copy_3_1_" opacity="0.6">
	<g id="Group_1_copy_20_">
		<g id="Shape_1_7_">
			<path fill-rule="evenodd" clip-rule="evenodd" fill="#FEFAFA" d="M151,692l-2.8,7l2.8,7l2.9-7L151,692z M151,692L151,692L151,692
				L151,692z"/>
		</g>
		<g id="Shape_1_copy_7_">
			<path fill-rule="evenodd" clip-rule="evenodd" fill="#FEFAFA" d="M158,698.9L158,698.9L158,698.9L158,698.9z M144,698.9l7,2.9
				l7-2.8l-7-2.8L144,698.9z"/>
		</g>
	</g>
	<g id="Group_1_copy_2_20_" opacity="0.8">
		<g id="Shape_1_8_">
			<path fill-rule="evenodd" clip-rule="evenodd" fill="#FEFAFA" d="M147,703l5.6-2.3l2.3-5.6l-5.5,2.4L147,703z M155,695L155,695
				L155,695L155,695z"/>
		</g>
		<g id="Shape_1_copy_8_">
			<path fill-rule="evenodd" clip-rule="evenodd" fill="#FEFAFA" d="M147.1,695l2.3,5.6l5.5,2.3l-2.4-5.5L147.1,695z M155,702.9
				L155,702.9L155,702.9L155,702.9z"/>
		</g>
	</g>
</g>
<g id="Group_2_copy_4_1_" opacity="0.6">
	<g id="Group_1_copy_19_">
		<g id="Shape_1_9_">
			<path fill-rule="evenodd" clip-rule="evenodd" fill="#FEFAFA" d="M115,83L115,83L115,83L115,83z M115,83l-2.8,7l2.8,7l2.9-7
				L115,83z"/>
		</g>
		<g id="Shape_1_copy_9_">
			<path fill-rule="evenodd" clip-rule="evenodd" fill="#FEFAFA" d="M122,89.9L122,89.9L122,89.9L122,89.9z M108,89.9l7,2.9l7-2.8
				l-7-2.8L108,89.9z"/>
		</g>
	</g>
	<g id="Group_1_copy_2_19_" opacity="0.8">
		<g id="Shape_1_10_">
			<path fill-rule="evenodd" clip-rule="evenodd" fill="#FEFAFA" d="M111,94l5.6-2.3l2.3-5.6l-5.5,2.4L111,94z M119,86L119,86
				L119,86L119,86z"/>
		</g>
		<g id="Shape_1_copy_10_">
			<path fill-rule="evenodd" clip-rule="evenodd" fill="#FEFAFA" d="M111.1,86l2.3,5.6l5.5,2.3l-2.4-5.5L111.1,86z M119,93.9
				L119,93.9L119,93.9L119,93.9z"/>
		</g>
	</g>
</g>
<g id="Group_1_copy_4_1_" opacity="0.102">
	<g id="Shape_1_11_">
		<path fill-rule="evenodd" clip-rule="evenodd" fill="#FEFAFA" d="M1453.4,729.8L1453.4,729.8L1453.4,729.8L1453.4,729.8z
			 M1453.5,729.9l-9.6,23.2l9.6,23.4l9.3-23.4L1453.5,729.9z"/>
	</g>
	<g id="Shape_1_copy_11_">
		<path fill-rule="evenodd" clip-rule="evenodd" fill="#FEFAFA" d="M1430,752.9L1430,752.9L1430,752.9L1430,752.9z M1453.5,743.6
			l-23.4,9.3l23.5,9.5l23.6-9.5L1453.5,743.6z"/>
	</g>
	<g id="Shape_2_1_" opacity="0.4">
		<polygon fill-rule="evenodd" clip-rule="evenodd" fill="#FFFFFF" points="1414,713 1413.3,713.7 1493.3,793 1494,792.3 		"/>
	</g>
	<g id="Shape_3_1_" opacity="0.4">
		<polygon fill-rule="evenodd" clip-rule="evenodd" fill="#FFFFFF" points="1493,713 1413,792.3 1413.7,793 1493.7,713.7 		"/>
	</g>
</g>
<g id="Group_2_copy_8_13_" opacity="0.8">
	<g id="Group_1_copy_18_">
		<g id="Shape_1_12_">
			<path fill-rule="evenodd" clip-rule="evenodd" fill="#FEFAFA" d="M1200.5,184L1200.5,184L1200.5,184L1200.5,184z M1200.5,184.1
				l-5.1,12.4l5.1,12.5l4.9-12.5L1200.5,184.1z"/>
		</g>
		<g id="Shape_1_copy_12_">
			<path fill-rule="evenodd" clip-rule="evenodd" fill="#FEFAFA" d="M1200.5,191.4l-12.4,5l12.4,5.1l12.5-5.1L1200.5,191.4z
				 M1188,196.4L1188,196.4L1188,196.4L1188,196.4z"/>
		</g>
	</g>
	<g id="Group_1_copy_2_18_" opacity="0.8">
		<g id="Shape_1_13_">
			<path fill-rule="evenodd" clip-rule="evenodd" fill="#FEFAFA" d="M1193.4,189.5L1193.4,189.5L1193.4,189.5L1193.4,189.5z
				 M1203.3,193.7l-9.8-4.2l4.2,9.9l10,4.2L1203.3,193.7z"/>
		</g>
		<g id="Shape_1_copy_13_">
			<path fill-rule="evenodd" clip-rule="evenodd" fill="#FEFAFA" d="M1197.6,193.6l-4.2,9.8l9.9-4.2l4.2-10L1197.6,193.6z
				 M1193.4,203.5L1193.4,203.5L1193.4,203.5L1193.4,203.5z"/>
		</g>
	</g>
</g>
<g id="Group_2_copy_8_12_" opacity="0.6">
	<g id="Group_1_copy_17_">
		<g id="Shape_1_14_">
			<path fill-rule="evenodd" clip-rule="evenodd" fill="#FEFAFA" d="M1549.5,1376L1549.5,1376L1549.5,1376L1549.5,1376z
				 M1549.5,1376.1l-5.1,12.4l5.1,12.5l4.9-12.5L1549.5,1376.1z"/>
		</g>
		<g id="Shape_1_copy_14_">
			<path fill-rule="evenodd" clip-rule="evenodd" fill="#FEFAFA" d="M1537,1388.4L1537,1388.4L1537,1388.4L1537,1388.4z
				 M1549.5,1383.4l-12.4,5l12.4,5.1l12.5-5.1L1549.5,1383.4z"/>
		</g>
	</g>
	<g id="Group_1_copy_2_17_" opacity="0.8">
		<g id="Shape_1_15_">
			<path fill-rule="evenodd" clip-rule="evenodd" fill="#FEFAFA" d="M1552.3,1385.7l-9.8-4.2l4.2,9.9l10,4.2L1552.3,1385.7z
				 M1542.4,1381.5L1542.4,1381.5L1542.4,1381.5L1542.4,1381.5z"/>
		</g>
		<g id="Shape_1_copy_15_">
			<path fill-rule="evenodd" clip-rule="evenodd" fill="#FEFAFA" d="M1542.4,1395.5L1542.4,1395.5L1542.4,1395.5L1542.4,1395.5z
				 M1546.6,1385.6l-4.2,9.8l9.9-4.2l4.2-10L1546.6,1385.6z"/>
		</g>
	</g>
</g>
<g id="Group_2_copy_8_11_" opacity="0.6">
	<g id="Group_1_copy_16_">
		<g id="Shape_1_16_">
			<path fill-rule="evenodd" clip-rule="evenodd" fill="#FEFAFA" d="M276.5,1401L276.5,1401L276.5,1401L276.5,1401z M276.5,1401.1
				l-5.1,12.4l5.1,12.5l4.9-12.5L276.5,1401.1z"/>
		</g>
		<g id="Shape_1_copy_16_">
			<path fill-rule="evenodd" clip-rule="evenodd" fill="#FEFAFA" d="M264,1413.4L264,1413.4L264,1413.4L264,1413.4z M276.5,1408.4
				l-12.4,5l12.4,5.1l12.5-5.1L276.5,1408.4z"/>
		</g>
	</g>
	<g id="Group_1_copy_2_16_" opacity="0.8">
		<g id="Shape_1_17_">
			<path fill-rule="evenodd" clip-rule="evenodd" fill="#FEFAFA" d="M269.4,1406.5L269.4,1406.5L269.4,1406.5L269.4,1406.5z
				 M279.3,1410.7l-9.8-4.2l4.2,9.9l10,4.2L279.3,1410.7z"/>
		</g>
		<g id="Shape_1_copy_17_">
			<path fill-rule="evenodd" clip-rule="evenodd" fill="#FEFAFA" d="M273.6,1410.6l-4.2,9.8l9.9-4.2l4.2-10L273.6,1410.6z
				 M269.4,1420.5L269.4,1420.5L269.4,1420.5L269.4,1420.5z"/>
		</g>
	</g>
</g>
<g id="Group_2_copy_8_10_" opacity="0.6">
	<g id="Group_1_copy_15_">
		<g id="Shape_1_18_">
			<path fill-rule="evenodd" clip-rule="evenodd" fill="#FEFAFA" d="M808,244L808,244L808,244L808,244z M808,244l-2.8,7l2.9,7l2.8-7
				L808,244z"/>
		</g>
		<g id="Shape_1_copy_18_">
			<path fill-rule="evenodd" clip-rule="evenodd" fill="#FEFAFA" d="M801,250.9L801,250.9L801,250.9L801,250.9z M808,248.1l-7,2.8
				l7,2.8l7-2.9L808,248.1z"/>
		</g>
	</g>
	<g id="Group_1_copy_2_15_" opacity="0.8">
		<g id="Shape_1_19_">
			<path fill-rule="evenodd" clip-rule="evenodd" fill="#FEFAFA" d="M804,247.1L804,247.1L804,247.1L804,247.1z M809.6,249.4
				l-5.5-2.4l2.3,5.6l5.6,2.3L809.6,249.4z"/>
		</g>
		<g id="Shape_1_copy_19_">
			<path fill-rule="evenodd" clip-rule="evenodd" fill="#FEFAFA" d="M804,254.9L804,254.9L804,254.9L804,254.9z M806.4,249.4
				l-2.4,5.5l5.5-2.3l2.3-5.6L806.4,249.4z"/>
		</g>
	</g>
</g>
<g id="Group_2_copy_8_9_" opacity="0.6">
	<g id="Group_1_copy_14_">
		<g id="Shape_1_20_">
			<path fill-rule="evenodd" clip-rule="evenodd" fill="#FEFAFA" d="M137,1119L137,1119L137,1119L137,1119z M137,1119l-2.8,7l2.9,7
				l2.8-7L137,1119z"/>
		</g>
		<g id="Shape_1_copy_20_">
			<path fill-rule="evenodd" clip-rule="evenodd" fill="#FEFAFA" d="M130,1125.9L130,1125.9L130,1125.9L130,1125.9z M137,1123.1
				l-7,2.8l7,2.8l7-2.9L137,1123.1z"/>
		</g>
	</g>
	<g id="Group_1_copy_2_14_" opacity="0.8">
		<g id="Shape_1_21_">
			<path fill-rule="evenodd" clip-rule="evenodd" fill="#FEFAFA" d="M133,1122.1L133,1122.1L133,1122.1L133,1122.1z M138.6,1124.4
				l-5.5-2.4l2.3,5.6l5.6,2.3L138.6,1124.4z"/>
		</g>
		<g id="Shape_1_copy_21_">
			<path fill-rule="evenodd" clip-rule="evenodd" fill="#FEFAFA" d="M135.4,1124.4l-2.4,5.5l5.5-2.3l2.3-5.6L135.4,1124.4z
				 M133,1129.9L133,1129.9L133,1129.9L133,1129.9z"/>
		</g>
	</g>
</g>
<g id="Group_2_copy_8_8_" opacity="0.8">
	<g id="Group_1_copy_13_">
		<g id="Shape_1_22_">
			<path fill-rule="evenodd" clip-rule="evenodd" fill="#FEFAFA" d="M826,1468L826,1468L826,1468L826,1468z M826,1468l-2.8,7l2.9,7
				l2.8-7L826,1468z"/>
		</g>
		<g id="Shape_1_copy_22_">
			<path fill-rule="evenodd" clip-rule="evenodd" fill="#FEFAFA" d="M819,1474.9L819,1474.9L819,1474.9L819,1474.9z M826,1472.1
				l-7,2.8l7,2.8l7-2.9L826,1472.1z"/>
		</g>
	</g>
	<g id="Group_1_copy_2_13_" opacity="0.8">
		<g id="Shape_1_23_">
			<path fill-rule="evenodd" clip-rule="evenodd" fill="#FEFAFA" d="M822,1471.1L822,1471.1L822,1471.1L822,1471.1z M827.6,1473.4
				l-5.5-2.4l2.3,5.6l5.6,2.3L827.6,1473.4z"/>
		</g>
		<g id="Shape_1_copy_23_">
			<path fill-rule="evenodd" clip-rule="evenodd" fill="#FEFAFA" d="M822,1478.9L822,1478.9L822,1478.9L822,1478.9z M824.4,1473.4
				l-2.4,5.5l5.5-2.3l2.3-5.6L824.4,1473.4z"/>
		</g>
	</g>
</g>
<g id="Group_2_copy_8_7_">
	<g id="Group_1_copy_12_">
		<g id="Shape_1_24_">
			<path fill-rule="evenodd" clip-rule="evenodd" fill="#FEFAFA" d="M690,706l-2.8,7l2.9,7l2.8-7L690,706z M690,706L690,706L690,706
				L690,706z"/>
		</g>
		<g id="Shape_1_copy_24_">
			<path fill-rule="evenodd" clip-rule="evenodd" fill="#FEFAFA" d="M683,712.9L683,712.9L683,712.9L683,712.9z M690,710.1l-7,2.8
				l7,2.8l7-2.9L690,710.1z"/>
		</g>
	</g>
	<g id="Group_1_copy_2_12_" opacity="0.8">
		<g id="Shape_1_25_">
			<path fill-rule="evenodd" clip-rule="evenodd" fill="#FEFAFA" d="M686,709.1L686,709.1L686,709.1L686,709.1z M691.6,711.4
				l-5.5-2.4l2.3,5.6l5.6,2.3L691.6,711.4z"/>
		</g>
		<g id="Shape_1_copy_25_">
			<path fill-rule="evenodd" clip-rule="evenodd" fill="#FEFAFA" d="M686,716.9L686,716.9L686,716.9L686,716.9z M688.4,711.4
				l-2.4,5.5l5.5-2.3l2.3-5.6L688.4,711.4z"/>
		</g>
	</g>
</g>
</svg>
